<svg width="23" height="22" viewBox="0 0 23 22" fill="none" xmlns="http://www.w3.org/2000/svg">
<g id="barcode scanner">
<path id="Vector" d="M6.79548 4.16301C6.79548 4.42858 6.574 4.64389 6.30074 4.64389H3.0591C2.70102 4.64389 2.4097 4.90645 2.4097 5.22912V8.24985C2.4097 8.51542 2.18818 8.73073 1.91496 8.73073C1.6417 8.73073 1.42022 8.51542 1.42022 8.24985V5.22912C1.42022 4.37612 2.1554 3.68213 3.0591 3.68213H6.30078C6.574 3.68213 6.79548 3.89744 6.79548 4.16301ZM21.0916 13.2434C20.8184 13.2434 20.5969 13.4587 20.5969 13.7243V16.745C20.5969 17.0678 20.3056 17.3303 19.9476 17.3303H16.7058C16.4325 17.3303 16.2111 17.5456 16.2111 17.8112C16.2111 18.0767 16.4325 18.292 16.7058 18.292H19.9476C20.8512 18.292 21.5864 17.5981 21.5864 16.745V13.7243C21.5864 13.4587 21.3649 13.2434 21.0916 13.2434ZM6.20039 17.3302H2.9587C2.60059 17.3302 2.30931 17.0677 2.30931 16.745V13.7242C2.30931 13.4587 2.08783 13.2434 1.81457 13.2434C1.5413 13.2434 1.31982 13.4587 1.31982 13.7242V16.745C1.31982 17.598 2.05501 18.292 2.9587 18.292H6.20039C6.47365 18.292 6.69513 18.0767 6.69513 17.8111C6.69513 17.5455 6.47365 17.3302 6.20039 17.3302ZM20.0479 3.68213H16.8062C16.5329 3.68213 16.3115 3.89744 16.3115 4.16301C16.3115 4.42858 16.5329 4.64389 16.8062 4.64389H20.0479C20.406 4.64389 20.6973 4.90645 20.6973 5.22912V8.24985C20.6973 8.51542 20.9188 8.73073 21.192 8.73073C21.4653 8.73073 21.6868 8.51542 21.6868 8.24985V5.22912C21.6868 4.37612 20.9516 3.68213 20.0479 3.68213ZM5.63172 13.5837V8.54591C5.63172 8.28031 5.41024 8.06503 5.13698 8.06503C4.86371 8.06503 4.64223 8.28031 4.64223 8.54591V13.5837C4.64223 13.8493 4.86371 14.0646 5.13698 14.0646C5.41024 14.0646 5.63172 13.8493 5.63172 13.5837ZM9.38118 8.06503C9.10791 8.06503 8.88643 8.28031 8.88643 8.54591V13.5837C8.88643 13.8493 9.10791 14.0646 9.38118 14.0646C9.65444 14.0646 9.87592 13.8493 9.87592 13.5837V8.54591C9.87592 8.28031 9.65444 8.06503 9.38118 8.06503ZM13.6254 8.06503C13.3522 8.06503 13.1307 8.28031 13.1307 8.54591V13.5837C13.1307 13.8493 13.3522 14.0646 13.6254 14.0646C13.8987 14.0646 14.1202 13.8493 14.1202 13.5837V8.54591C14.1202 8.28031 13.8987 8.06503 13.6254 8.06503ZM18.3644 13.5837V8.54591C18.3644 8.28031 18.1429 8.06503 17.8696 8.06503C17.5964 8.06503 17.3749 8.28031 17.3749 8.54591V13.5837C17.3749 13.8493 17.5964 14.0646 17.8696 14.0646C18.1429 14.0646 18.3644 13.8493 18.3644 13.5837Z" fill="#F76B56"/>
</g>
</svg>
