<svg width="37" height="36" viewBox="0 0 37 36" fill="none" xmlns="http://www.w3.org/2000/svg">
<g id="Upload icon">
<path id="Vector" d="M19.3135 8.72403L19.4125 8.75634L19.42 8.74698C19.6822 8.77528 19.922 8.59428 19.9933 8.33124C20.6166 6.03892 22.5755 4.45105 24.7429 4.45105C25.0551 4.45105 25.2857 4.17836 25.2857 3.87123C25.2857 3.56408 25.0551 3.29141 24.7429 3.29141C21.9894 3.29141 19.6882 5.29663 18.9511 8.00757C18.8707 8.30262 19.0206 8.62841 19.3135 8.72403Z" fill="#1B66F8" stroke="#F9FFF9" stroke-width="0.3"/>
<path id="Vector_2" d="M30.2415 24.9282H27.8851C27.6682 24.9282 27.4923 24.7357 27.4923 24.4984C27.4923 24.2611 27.6682 24.0686 27.8851 24.0686H30.2415C33.4897 24.0686 36.1326 21.1762 36.1326 17.6213C36.1326 14.0665 33.4897 11.1741 30.2415 11.1741H30.1848C30.0709 11.1741 29.9626 11.12 29.888 11.0258C29.8134 10.9315 29.7797 10.8066 29.796 10.6832C29.8311 10.4155 29.8487 10.1465 29.8487 9.88464C29.8487 6.80378 27.5582 4.29699 24.7431 4.29699C23.6479 4.29699 22.6034 4.67154 21.7225 5.38043C21.529 5.53608 21.2541 5.46701 21.1421 5.23398C18.6474 0.035067 12.1314 -0.663094 8.75314 3.85951C7.33003 5.76481 6.77087 8.24331 7.21893 10.6589C7.26831 10.9257 7.08175 11.1744 6.83404 11.1744H6.67667C3.42843 11.1744 0.785524 14.0668 0.785524 17.6216C0.785524 21.1765 3.42843 24.0689 6.67667 24.0689H9.03309C9.24994 24.0689 9.42584 24.2614 9.42584 24.4987C9.42584 24.736 9.24995 24.9285 9.03309 24.9285H6.67667C2.99523 24.9285 0 21.6506 0 17.6216C0 13.7057 2.82941 10.4992 6.36836 10.3224C6.03593 7.81624 6.67162 5.2883 8.14494 3.31549C11.7618 -1.527 18.6933 -0.984218 21.6234 4.41551C22.5581 3.77415 23.6278 3.4377 24.7429 3.4377C28.1536 3.4377 30.8563 6.61468 30.6198 10.3264C34.1261 10.5416 36.918 13.7312 36.918 17.6213C36.918 21.6506 33.9229 24.9282 30.2415 24.9282Z" fill="#1B66F8"/>
<path id="Vector_3" d="M8.43716 24.2572C8.43716 30.2522 12.8966 35.1528 18.4058 35.1528C23.9152 35.1528 28.3745 30.2521 28.3745 24.2572C28.3745 18.2623 23.9152 13.3617 18.4058 13.3617C12.8965 13.3617 8.43716 18.2624 8.43716 24.2572ZM9.52283 24.2572C9.52283 18.8762 13.5203 14.5216 18.4058 14.5216C23.2913 14.5216 27.2889 18.8761 27.2889 24.2572C27.2889 29.6383 23.2913 33.993 18.4058 33.993C13.5204 33.993 9.52283 29.6384 9.52283 24.2572Z" fill="#1B66F8" stroke="#F9FFF9" stroke-width="0.3"/>
<g id="arrow">
<path id="Vector_4" d="M18.15 28.5803C18.15 28.8238 18.3335 29.0449 18.5876 29.0449C18.8416 29.0449 19.0251 28.8241 19.0251 28.5803V20.3987C19.0251 20.1551 18.8416 19.934 18.5876 19.934C18.3335 19.934 18.15 20.1551 18.15 20.3987V28.5803Z" fill="#1B66F8" stroke="#1B66F8" stroke-width="0.3"/>
<path id="Vector_5" d="M21.0902 23.1386L21.2011 23.2396C21.1167 23.3322 21.0028 23.3808 20.8869 23.3808L21.0902 23.1386ZM21.0902 23.1386C21.0341 23.2002 20.9604 23.2308 20.8869 23.2308L21.0902 23.1386ZM18.5866 21.0661L20.5728 23.2398C20.6569 23.3319 20.7707 23.3808 20.8868 23.3808L18.5866 21.0661ZM18.5866 21.0661L16.6005 23.2397C16.6005 23.2397 16.6005 23.2398 16.6004 23.2398C16.4287 23.4279 16.144 23.4277 15.9723 23.2398C15.8076 23.0595 15.8076 22.7726 15.9723 22.5924L18.2724 20.0751C18.2725 20.0751 18.2725 20.0751 18.2725 20.0751L18.2725 20.075L18.3833 20.1762L18.5866 21.0661Z" fill="#1B66F8" stroke="#1B66F8" stroke-width="0.3"/>
</g>
</g>
</svg>
