<svg width="22" height="22" viewBox="0 0 22 22" fill="none" xmlns="http://www.w3.org/2000/svg">
<g id="Search">
<path id="Vector" d="M3.91809 13.5776C5.13602 14.7631 6.75793 15.4748 8.47826 15.5785C10.1986 15.6823 11.8986 15.171 13.258 14.141L17.9354 18.6874C18.1013 18.8431 18.3234 18.9293 18.5541 18.9273C18.7847 18.9254 19.0053 18.8355 19.1683 18.6769C19.3314 18.5184 19.4239 18.304 19.4259 18.0799C19.4279 17.8557 19.3393 17.6398 19.1791 17.4785L14.5016 12.9322C15.6084 11.5517 16.1316 9.81278 15.9647 8.07018C15.7977 6.32757 14.9531 4.7125 13.6032 3.55434C12.2532 2.39619 10.4996 1.78218 8.69987 1.83755C6.90017 1.89292 5.18998 2.61349 3.91809 3.85231C3.26089 4.49077 2.73955 5.24882 2.38386 6.08318C2.02817 6.91753 1.84509 7.81183 1.84509 8.71497C1.84509 9.61811 2.02817 10.5124 2.38386 11.3468C2.73955 12.1811 3.26089 12.9392 3.91809 13.5776ZM5.16176 5.06284C6.03125 4.21773 7.17532 3.69179 8.39904 3.57463C9.62275 3.45748 10.8504 3.75634 11.8728 4.42032C12.8953 5.0843 13.6492 6.07231 14.0062 7.216C14.3632 8.3597 14.3012 9.58834 13.8307 10.6926C13.3602 11.7968 12.5104 12.7083 11.426 13.2718C10.3416 13.8353 9.08974 14.0159 7.8837 13.7829C6.67767 13.5499 5.59207 12.9176 4.81188 11.9938C4.03168 11.07 3.60515 9.91186 3.60497 8.71668C3.60256 8.03753 3.73893 7.36467 4.00617 6.73715C4.27341 6.10963 4.66621 5.53994 5.16176 5.06113V5.06284Z" fill="#F76B56"/>
</g>
</svg>
