<svg width="19" height="19" viewBox="0 0 19 19" fill="none" xmlns="http://www.w3.org/2000/svg">
<g id="Time">
<path id="Vector" d="M9.59041 17.6896C5.07431 17.6896 1.40076 14.0161 1.40076 9.49999C1.40076 4.98389 5.07431 1.31033 9.59041 1.31033C14.1065 1.31033 17.7801 4.98389 17.7801 9.49999C17.7801 14.0161 14.1059 17.6896 9.59041 17.6896ZM9.59041 2.62068C5.79696 2.62068 2.7111 5.70654 2.7111 9.49999C2.7111 13.2934 5.79696 16.3793 9.59041 16.3793C13.3839 16.3793 16.4697 13.2934 16.4697 9.49999C16.4697 5.70654 13.3832 2.62068 9.59041 2.62068ZM9.538 10.1027H5.33179C5.15803 10.1027 4.99138 10.0337 4.86852 9.91085C4.74565 9.78798 4.67662 9.62134 4.67662 9.44758C4.67662 9.27381 4.74565 9.10717 4.86852 8.9843C4.99138 8.86143 5.15803 8.7924 5.33179 8.7924H8.88283V3.93102C8.88283 3.75726 8.95185 3.59062 9.07472 3.46775C9.19759 3.34488 9.36424 3.27585 9.538 3.27585C9.71176 3.27585 9.87841 3.34488 10.0013 3.46775C10.1241 3.59062 10.1932 3.75726 10.1932 3.93102V9.44758C10.1932 9.62134 10.1241 9.78798 10.0013 9.91085C9.87841 10.0337 9.71176 10.1027 9.538 10.1027Z" fill="#F76B56"/>
</g>
</svg>
